<svg width="1456" height="1092" viewBox="0 0 1456 1092" fill="none" xmlns="http://www.w3.org/2000/svg">
<g filter="url(#filter0_f_2_21)">
<ellipse cx="72.5" cy="547" rx="68.5" ry="68" fill="#838383" fill-opacity="0.2"/>
</g>
<g filter="url(#filter1_f_2_21)">
<ellipse cx="919.5" cy="508" rx="68.5" ry="68" fill="#838383" fill-opacity="0.2"/>
</g>
<g filter="url(#filter2_f_2_21)">
<path d="M278 944.5C278 1012.71 218.454 1068 145 1068C71.5461 1068 12 1012.71 12 944.5C12 876.293 71.5461 821 145 821C218.454 821 278 876.293 278 944.5Z" fill="#838383" fill-opacity="0.2"/>
</g>
<g filter="url(#filter3_f_2_21)">
<path d="M500 138.5C500 212.782 441.125 273 368.5 273C295.875 273 237 212.782 237 138.5C237 64.2177 295.875 4 368.5 4C441.125 4 500 64.2177 500 138.5Z" fill="#838383" fill-opacity="0.2"/>
</g>
<g filter="url(#filter4_f_2_21)">
<ellipse cx="1274.5" cy="921" rx="177.5" ry="167" fill="#838383" fill-opacity="0.2"/>
</g>
<defs>
<filter id="filter0_f_2_21" x="0" y="475" width="145" height="144" filterUnits="userSpaceOnUse" color-interpolation-filters="sRGB">
<feFlood flood-opacity="0" result="BackgroundImageFix"/>
<feBlend mode="normal" in="SourceGraphic" in2="BackgroundImageFix" result="shape"/>
<feGaussianBlur stdDeviation="2" result="effect1_foregroundBlur_2_21"/>
</filter>
<filter id="filter1_f_2_21" x="847" y="436" width="145" height="144" filterUnits="userSpaceOnUse" color-interpolation-filters="sRGB">
<feFlood flood-opacity="0" result="BackgroundImageFix"/>
<feBlend mode="normal" in="SourceGraphic" in2="BackgroundImageFix" result="shape"/>
<feGaussianBlur stdDeviation="2" result="effect1_foregroundBlur_2_21"/>
</filter>
<filter id="filter2_f_2_21" x="8" y="817" width="274" height="255" filterUnits="userSpaceOnUse" color-interpolation-filters="sRGB">
<feFlood flood-opacity="0" result="BackgroundImageFix"/>
<feBlend mode="normal" in="SourceGraphic" in2="BackgroundImageFix" result="shape"/>
<feGaussianBlur stdDeviation="2" result="effect1_foregroundBlur_2_21"/>
</filter>
<filter id="filter3_f_2_21" x="233" y="0" width="271" height="277" filterUnits="userSpaceOnUse" color-interpolation-filters="sRGB">
<feFlood flood-opacity="0" result="BackgroundImageFix"/>
<feBlend mode="normal" in="SourceGraphic" in2="BackgroundImageFix" result="shape"/>
<feGaussianBlur stdDeviation="2" result="effect1_foregroundBlur_2_21"/>
</filter>
<filter id="filter4_f_2_21" x="1093" y="750" width="363" height="342" filterUnits="userSpaceOnUse" color-interpolation-filters="sRGB">
<feFlood flood-opacity="0" result="BackgroundImageFix"/>
<feBlend mode="normal" in="SourceGraphic" in2="BackgroundImageFix" result="shape"/>
<feGaussianBlur stdDeviation="2" result="effect1_foregroundBlur_2_21"/>
</filter>
</defs>
</svg>
